<svg xmlns="http://www.w3.org/2000/svg" width="36" height="36" viewBox="0 0 36 36">
  <path d="M36 22.8c-.1.3-.4.5-.7.4l-1.3-.3c-4.9 2.5-8.6 6.3-11.1 11.1l.3 1.3c.1.3-.1.6-.4.7-.3.1-.6-.1-.7-.4l-.4-1.3C17.1 31.4 12 30 6.5 30.2l-.9.9c-.2.2-.6.2-.8 0-.2-.2-.2-.6 0-.8l.9-.9c.3-5.5-1-10.5-4-15.2l-1.3-.4c-.3-.1-.5-.4-.4-.7.1-.3.4-.5.7-.4l1.3.4C6.9 10.6 10.6 6.9 13.1 2L12.8.7c-.1-.3.1-.6.4-.7.3-.1.6.1.7.4l.4 1.3C18.9 4.6 24 6 29.5 5.8l.9-.9c.2-.2.6-.2.8 0 .2.2.2.6 0 .8l-.9.9c-.2 5.5 1.1 10.6 4.1 15.2l1.3.4c.2 0 .4.3.3.6zm-13.5 9.7c2.4-4.3 5.7-7.6 10-10l-4.4-1.2c-2.7 1.9-4.9 4.1-6.8 6.8l1.2 4.4zm-1.6-16.6L19 17.8l2.5.7c-.1-1-.3-1.8-.6-2.6zm-5.8 4.3l1.9-1.9-2.5-.7c.1.9.3 1.7.6 2.6zm2.6-1.1L15.8 21c.9.2 1.7.4 2.5.7l-.6-2.6zm.6-2.2l1.9-1.9c-.9-.2-1.7-.4-2.5-.7l.6 2.6zm3 2.6l-2.5-.7.7 2.5 1.8-1.8zm-1.5 3.1l1.1 4c1.6-2.2 3.6-4.1 5.8-5.8l-4-1.1c-1.1 1-2 1.9-2.9 2.9zm-1.1.3c-1.3-.4-2.5-.7-3.8-1L12 24.8c2.7.3 5.3 1 7.8 2.1l-1.1-4zm-4.6-1.8c-.3-1.3-.6-2.6-1-3.8l-4-1.1c1.1 2.5 1.8 5.1 2.1 7.9l2.9-3zm-.7-4.9c1-.9 1.9-1.8 2.8-2.8l-1.1-4c-1.6 2.2-3.6 4.1-5.8 5.8l4.1 1zm1.3.3l2.5.7-.7-2.5-1.8 1.8zm2.6-3.4c1.3.4 2.5.7 3.8 1l2.9-2.9c-2.7-.3-5.3-1-7.9-2.1l1.2 4zm4.6 1.8c.3 1.3.6 2.6 1 3.8l4 1.1c-1.1-2.5-1.8-5.1-2.1-7.9l-2.9 3zm-.5 17.9l-1.2-4.4c-2.9-1.4-6-2.2-9.3-2.5l-3.2 3.2c4.9-.1 9.5 1.2 13.7 3.7zM6.9 28.3l3.2-3.2c-.3-3.2-1.1-6.3-2.5-9.3l-4.4-1.2c2.5 4.2 3.8 8.8 3.7 13.7zm6.6-24.8c-2.4 4.3-5.7 7.6-10 10l4.4 1.2c2.7-1.9 4.9-4.1 6.8-6.8l-1.2-4.4zm1.1-.3l1.2 4.4c2.9 1.4 6 2.2 9.3 2.5l3.2-3.2c-4.9.1-9.5-1.2-13.7-3.7zm14.5 4.5l-3.2 3.2c.3 3.2 1.1 6.3 2.5 9.3l4.4 1.2c-2.5-4.2-3.8-8.8-3.7-13.7z"/>
</svg>